# xmcd
#
# Track frame offsets: 
#        150
#        20067
#        110169
#        132337
#        182185
#        204485
#        248714
#        278656
#
# Disc length: 3944 seconds
#
# Revision: 1
# Processed by: cddbd v1.5.2PL0 Copyright (c) Steve Scherf et al.
# Submitted via: ExactAudioCopy v0.99pb4
#
DISCID=750f6608
DTITLE=Jimi Hendrix - Burning Desire
DYEAR=2006
DGENRE=Rock
TTITLE0=Izabella
TTITLE1=Ezy Ryder - MLK Jam
TTITLE2=Cherokee Mist - Astro Man
TTITLE3=Record Plant 2X
TTITLE4=Villanova Junction Blues
TTITLE5=Burning Desire
TTITLE6=Stepping Stone - Villanova Junction Blues
TTITLE7=Slow Time Blues
EXTD=
EXTT0=
EXTT1=
EXTT2=
EXTT3=
EXTT4=
EXTT5=
EXTT6=
EXTT7=
PLAYORDER=
